<?xml version="1.0" encoding="UTF-8" standalone="no"?>
<svg width="176px" height="70px" viewBox="0 0 176 70" version="1.1" xmlns="http://www.w3.org/2000/svg" xmlns:xlink="http://www.w3.org/1999/xlink" xmlns:sketch="http://www.bohemiancoding.com/sketch/ns">
    <!-- Generator: Sketch 3.0.4 (8053) - http://www.bohemiancoding.com/sketch -->
    <title>SODEC_noir</title>
    <desc>Created with Sketch.</desc>
    <defs>
        <path id="path-1" d="M0.06,0.095 L175.999,0.095 L175.999,70 L0.06,70"></path>
    </defs>
    <g id="Page-1" stroke="none" stroke-width="1" fill="none" fill-rule="evenodd" sketch:type="MSPage">
        <g id="SODEC_noir" sketch:type="MSLayerGroup">
            <path d="M70.639,62.014 L70.639,50.991 L70.555,50.991 C70.164,51.352 68.714,51.381 68.1,51.381 L67.036,51.381 L67.036,51.471 C68.266,52.227 68.098,53.342 68.098,54.731 L68.1,59.396 C68.1,61.728 65.81,63.364 63.962,63.364 C61.531,63.364 60.521,61.637 60.521,58.85 L60.521,50.991 L60.437,50.991 C60.045,51.352 58.588,51.381 57.973,51.381 L56.918,51.381 L56.918,51.471 C58.146,52.227 57.981,53.342 57.981,54.731 L57.981,59.379 C57.981,63.634 59.827,65.656 63.124,65.656 C65.081,65.656 67.092,64.961 68.1,63.304 L68.1,65.314 L71.701,65.314 L71.701,65.224 C70.471,64.526 70.639,63.407 70.639,62.014" id="Fill-1" fill="#1A1918" sketch:type="MSShapeGroup"></path>
            <path d="M86.382,57.876 C86.491,53.986 83.891,51.051 80.087,51.051 C75.919,51.051 73.094,54.076 73.094,58.27 C73.094,62.498 76.365,65.716 81.122,65.716 C82.437,65.716 83.778,65.509 84.981,64.969 L86.382,62.132 L86.296,62.132 C85.01,63.228 83.388,63.743 81.71,63.743 C78.549,63.743 76.17,61.586 76.113,57.876 L86.382,57.876 L86.382,57.876 Z M76.226,56.12 C76.561,54.226 77.96,53.024 79.836,53.024 C81.85,53.024 83.135,54.016 83.443,56.12 L76.226,56.12 L76.226,56.12 Z" id="Fill-2" fill="#1A1918" sketch:type="MSShapeGroup"></path>
            <path d="M88.6,44.588 C89.269,44.588 90.637,44.547 91.049,44.14 L91.133,44.14 L91.133,63.229 C91.885,63.439 92.665,63.588 93.44,63.588 C96.498,63.588 98.248,61.452 98.248,58.472 C98.248,55.549 96.887,53.291 94.081,53.291 C93.19,53.291 92.497,53.533 91.747,53.953 L93.248,51.384 C93.885,51.143 94.553,51.051 95.221,51.051 C98.391,51.051 101.086,53.802 101.086,57.929 C101.086,62.654 97.887,65.712 92.829,65.712 C90.94,65.712 89.124,65.378 87.756,65.166 L87.756,65.073 C88.678,64.651 88.594,63.648 88.594,62.654 L88.594,48.778 C88.594,47.386 88.763,45.436 87.56,44.678 L87.56,44.588 L88.6,44.588" id="Fill-3" fill="#1A1918" sketch:type="MSShapeGroup"></path>
            <path d="M116.204,57.876 C116.319,53.986 113.717,51.051 109.911,51.051 C105.743,51.051 102.92,54.076 102.92,58.27 C102.92,62.498 106.192,65.716 110.948,65.716 C112.262,65.716 113.608,65.509 114.807,64.969 L116.204,62.132 L116.124,62.132 C114.836,63.228 113.211,63.743 111.534,63.743 C108.372,63.743 105.997,61.586 105.94,57.876 L116.204,57.876 L116.204,57.876 Z M106.051,56.12 C106.387,54.226 107.786,53.024 109.661,53.024 C111.676,53.024 112.959,54.016 113.27,56.12 L106.051,56.12 L106.051,56.12 Z" id="Fill-4" fill="#1A1918" sketch:type="MSShapeGroup"></path>
            <path d="M128.717,54.508 L128.637,54.508 C127.823,53.509 126.479,53.024 125.221,53.024 C122.508,53.024 120.549,55.085 120.549,57.961 C120.549,61.442 123.262,63.743 126.368,63.743 C127.793,63.743 129.362,63.138 130.452,62.26 L130.536,62.26 L129.083,65.118 C127.907,65.598 126.62,65.716 125.389,65.716 C121.081,65.716 117.713,62.684 117.713,58.748 C117.713,53.54 121.473,51.051 125.696,51.051 C126.706,51.051 127.739,51.17 128.717,51.41 L128.717,54.508" id="Fill-5" fill="#1A1918" sketch:type="MSShapeGroup"></path>
            <g id="Group-10">
                <mask id="mask-2" sketch:name="Clip 7" fill="white">
                    <use xlink:href="#path-1"></use>
                </mask>
                <g id="Clip-7"></g>
                <path d="M82.892,48.553 L82.892,45.523 C81.058,46.347 79.355,47.882 78.217,49.378 L78.217,50.558 C80.939,48.724 82.892,48.638 82.892,48.553" id="Fill-6" fill="#1A1918" sketch:type="MSShapeGroup" mask="url(#mask-2)"></path>
                <path d="M59.885,68.267 C56.766,68.776 53.768,67.794 50.58,64.148 C53.659,62.605 55.562,58.758 55.562,55.182 C55.562,55.147 55.561,54.774 55.561,54.738 C55.506,48.622 50.911,44.582 45.434,44.582 C39.944,44.582 35.093,48.786 35.053,54.951 C35.053,54.98 35.052,55.337 35.052,55.365 C35.052,61.363 39.503,65.814 44.958,65.814 C45.74,65.814 46.496,65.694 47.251,65.512 C50.824,68.859 54.009,70.284 56.761,69.953 C58.068,69.797 59.446,69.277 60.274,68.202 L59.885,68.267 L59.885,68.267 Z M45.404,63.634 C41.18,63.634 38.242,58.869 38.242,54.82 L38.242,54.364 C38.296,50.442 40.834,46.763 45.266,46.763 C49.928,46.763 52.333,51.173 52.371,55.354 L52.371,55.789 C52.371,60.241 49.603,63.634 45.404,63.634 L45.404,63.634 Z" id="Fill-8" fill="#1A1918" sketch:type="MSShapeGroup" mask="url(#mask-2)"></path>
                <path d="M6.038,2.065 C5.498,1.821 4.947,1.705 4.375,1.705 C3.475,1.705 3.019,1.98 3.019,2.457 C3.019,2.976 3.528,3.029 4.301,3.399 C5.371,3.918 5.879,4.364 5.879,5.349 C5.879,6.895 4.64,7.986 2.458,7.986 C1.589,7.986 0.773,7.859 0,7.583 L0.424,6.069 C1.017,6.365 1.589,6.524 2.161,6.524 C3.199,6.524 3.782,6.153 3.782,5.603 C3.782,4.968 3.188,4.851 2.183,4.427 C1.356,4.078 0.943,3.516 0.943,2.7 C0.943,1.324 2.14,0.306 4.036,0.306 C5.085,0.306 5.922,0.423 6.494,0.635 L6.038,2.065" id="Fill-9" fill="#1A1918" sketch:type="MSShapeGroup" mask="url(#mask-2)"></path>
            </g>
            <path d="M10.19,3.474 C9.427,3.474 8.729,4.3 8.729,5.465 C8.729,6.185 9.163,6.694 9.777,6.694 C10.54,6.694 11.207,5.868 11.207,4.703 C11.207,3.939 10.794,3.474 10.19,3.474 L10.19,3.474 Z M13.124,4.787 C13.124,6.651 11.769,7.976 9.597,7.976 C7.85,7.976 6.801,7.011 6.801,5.486 C6.801,3.537 8.114,2.224 10.295,2.224 C12.065,2.224 13.124,3.198 13.124,4.787 L13.124,4.787 Z" id="Fill-11" fill="#1A1918" sketch:type="MSShapeGroup"></path>
            <path d="M18.632,3.887 C18.229,3.696 17.838,3.601 17.467,3.601 C16.45,3.601 15.783,4.236 15.783,5.168 C15.783,5.984 16.323,6.503 17.191,6.503 C17.541,6.503 17.891,6.418 18.272,6.249 L18.049,7.689 C17.478,7.838 16.969,7.912 16.492,7.912 C14.819,7.912 13.791,6.884 13.791,5.38 C13.791,3.537 15.116,2.213 17.245,2.213 C17.859,2.213 18.462,2.33 19.066,2.573 L18.632,3.887" id="Fill-12" fill="#1A1918" sketch:type="MSShapeGroup"></path>
            <path d="M22.689,0.466 L22.498,1.44 L20.645,1.44 L20.824,0.466 L22.689,0.466 L22.689,0.466 Z M22.297,2.362 L21.11,7.816 L19.257,7.816 L20.443,2.362 L22.297,2.362 L22.297,2.362 Z" id="Fill-13" fill="#1A1918" sketch:type="MSShapeGroup"></path>
            <path d="M26.227,0.095 L28.208,0.095 L28.208,0.328 L26.46,1.62 L25.21,1.62 L25.21,1.493 L26.227,0.095 L26.227,0.095 Z M27.042,4.279 C27.042,3.675 26.671,3.293 26.088,3.293 C25.506,3.293 25.019,3.749 24.807,4.533 L27.021,4.533 C27.032,4.448 27.042,4.364 27.042,4.279 L27.042,4.279 Z M24.563,5.582 C24.638,6.386 25.083,6.757 25.962,6.757 C26.544,6.757 27.19,6.619 27.816,6.344 L27.604,7.689 C26.957,7.891 26.28,7.997 25.591,7.997 C23.876,7.997 22.858,6.99 22.858,5.444 C22.858,4.554 23.24,3.633 23.832,3.05 C24.405,2.488 25.23,2.192 26.259,2.192 C27.773,2.192 28.599,3.05 28.599,4.543 C28.599,4.851 28.557,5.2 28.473,5.582 L24.563,5.582 L24.563,5.582 Z" id="Fill-14" fill="#1A1918" sketch:type="MSShapeGroup"></path>
            <path d="M32.54,2.372 L33.884,2.372 L33.609,3.675 L32.264,3.675 L31.861,5.571 C31.809,5.804 31.787,5.962 31.787,6.048 C31.787,6.439 31.956,6.609 32.38,6.609 C32.529,6.609 32.741,6.577 33.006,6.503 L32.73,7.806 C32.296,7.88 31.946,7.922 31.682,7.922 C30.548,7.922 29.902,7.319 29.902,6.27 C29.902,6.08 29.923,5.899 29.955,5.729 L30.39,3.675 L29.277,3.675 L29.553,2.372 L30.665,2.372 L30.94,1.08 L32.931,0.55 L32.54,2.372" id="Fill-15" fill="#1A1918" sketch:type="MSShapeGroup"></path>
            <path d="M37.38,0.095 L39.361,0.095 L39.361,0.328 L37.613,1.62 L36.364,1.62 L36.364,1.493 L37.38,0.095 L37.38,0.095 Z M38.196,4.279 C38.196,3.675 37.825,3.293 37.242,3.293 C36.66,3.293 36.172,3.749 35.96,4.533 L38.174,4.533 C38.185,4.448 38.196,4.364 38.196,4.279 L38.196,4.279 Z M35.717,5.582 C35.792,6.386 36.235,6.757 37.115,6.757 C37.698,6.757 38.344,6.619 38.969,6.344 L38.757,7.689 C38.11,7.891 37.433,7.997 36.745,7.997 C35.029,7.997 34.012,6.99 34.012,5.444 C34.012,4.554 34.394,3.633 34.986,3.05 C35.558,2.488 36.384,2.192 37.412,2.192 C38.927,2.192 39.752,3.05 39.752,4.543 C39.752,4.851 39.71,5.2 39.626,5.582 L35.717,5.582 L35.717,5.582 Z" id="Fill-16" fill="#1A1918" sketch:type="MSShapeGroup"></path>
            <path d="M3.676,14.225 C2.945,14.225 2.31,15.008 2.31,16.099 C2.31,16.735 2.691,17.159 3.252,17.159 C4.015,17.159 4.693,16.375 4.693,15.337 C4.693,14.67 4.269,14.225 3.676,14.225 L3.676,14.225 Z M7.521,11.058 L5.974,18.409 L4.28,18.409 L4.481,17.498 C3.952,18.207 3.273,18.568 2.489,18.568 C1.197,18.568 0.36,17.646 0.36,16.143 C0.36,14.161 1.558,12.816 3.252,12.816 C4.046,12.816 4.671,13.187 5.042,13.886 L5.646,11.058 L7.521,11.058 L7.521,11.058 Z" id="Fill-17" fill="#1A1918" sketch:type="MSShapeGroup"></path>
            <path d="M11.79,14.871 C11.79,14.267 11.419,13.886 10.836,13.886 C10.254,13.886 9.766,14.341 9.555,15.125 L11.769,15.125 C11.779,15.041 11.79,14.956 11.79,14.871 L11.79,14.871 Z M9.311,16.174 C9.385,16.979 9.83,17.349 10.709,17.349 C11.292,17.349 11.938,17.212 12.563,16.937 L12.351,18.282 C11.705,18.483 11.027,18.588 10.339,18.588 C8.623,18.588 7.605,17.583 7.605,16.036 C7.605,15.147 7.987,14.225 8.58,13.643 C9.152,13.081 9.978,12.784 11.006,12.784 C12.521,12.784 13.347,13.643 13.347,15.136 C13.347,15.443 13.304,15.792 13.22,16.174 L9.311,16.174 L9.311,16.174 Z" id="Fill-18" fill="#1A1918" sketch:type="MSShapeGroup"></path>
            <path d="M20.667,14.225 C19.935,14.225 19.299,15.008 19.299,16.099 C19.299,16.735 19.681,17.159 20.242,17.159 C21.004,17.159 21.682,16.375 21.682,15.337 C21.682,14.67 21.259,14.225 20.667,14.225 L20.667,14.225 Z M24.511,11.058 L22.964,18.409 L21.269,18.409 L21.47,17.498 C20.941,18.207 20.264,18.568 19.479,18.568 C18.187,18.568 17.35,17.646 17.35,16.143 C17.35,14.161 18.547,12.816 20.242,12.816 C21.036,12.816 21.661,13.187 22.032,13.886 L22.636,11.058 L24.511,11.058 L24.511,11.058 Z" id="Fill-19" fill="#1A1918" sketch:type="MSShapeGroup"></path>
            <path d="M27.964,10.687 L29.944,10.687 L29.944,10.92 L28.197,12.212 L26.947,12.212 L26.947,12.085 L27.964,10.687 L27.964,10.687 Z M28.779,14.871 C28.779,14.267 28.409,13.886 27.827,13.886 C27.244,13.886 26.757,14.341 26.545,15.125 L28.758,15.125 C28.769,15.041 28.779,14.956 28.779,14.871 L28.779,14.871 Z M26.301,16.174 C26.375,16.979 26.82,17.349 27.699,17.349 C28.282,17.349 28.927,17.212 29.553,16.937 L29.341,18.282 C28.695,18.483 28.017,18.588 27.328,18.588 C25.612,18.588 24.596,17.583 24.596,16.036 C24.596,15.147 24.977,14.225 25.57,13.643 C26.142,13.081 26.969,12.784 27.996,12.784 C29.51,12.784 30.336,13.643 30.336,15.136 C30.336,15.443 30.294,15.792 30.209,16.174 L26.301,16.174 L26.301,16.174 Z" id="Fill-20" fill="#1A1918" sketch:type="MSShapeGroup"></path>
            <path d="M33.133,12.964 L33.557,16.883 L35.495,12.964 L37.487,12.964 L34.287,18.409 L32.159,18.409 L31.248,12.964 L33.133,12.964" id="Fill-21" fill="#1A1918" sketch:type="MSShapeGroup"></path>
            <path d="M41.67,14.871 C41.67,14.267 41.299,13.886 40.716,13.886 C40.134,13.886 39.647,14.341 39.436,15.125 L41.648,15.125 C41.659,15.041 41.67,14.956 41.67,14.871 L41.67,14.871 Z M39.192,16.174 C39.266,16.979 39.71,17.349 40.59,17.349 C41.173,17.349 41.818,17.212 42.443,16.937 L42.232,18.282 C41.585,18.483 40.908,18.588 40.219,18.588 C38.503,18.588 37.487,17.583 37.487,16.036 C37.487,15.147 37.868,14.225 38.46,13.643 C39.032,13.081 39.859,12.784 40.886,12.784 C42.401,12.784 43.227,13.643 43.227,15.136 C43.227,15.443 43.185,15.792 43.1,16.174 L39.192,16.174 L39.192,16.174 Z" id="Fill-22" fill="#1A1918" sketch:type="MSShapeGroup"></path>
            <path d="M47.252,11.068 L45.663,18.409 L43.778,18.409 L45.366,11.068 L47.252,11.068" id="Fill-23" fill="#1A1918" sketch:type="MSShapeGroup"></path>
            <path d="M50.854,14.066 C50.091,14.066 49.392,14.893 49.392,16.057 C49.392,16.778 49.826,17.286 50.44,17.286 C51.203,17.286 51.87,16.46 51.87,15.294 C51.87,14.532 51.458,14.066 50.854,14.066 L50.854,14.066 Z M53.788,15.379 C53.788,17.244 52.432,18.568 50.26,18.568 C48.512,18.568 47.464,17.604 47.464,16.078 C47.464,14.129 48.777,12.816 50.959,12.816 C52.729,12.816 53.788,13.791 53.788,15.379 L53.788,15.379 Z" id="Fill-24" fill="#1A1918" sketch:type="MSShapeGroup"></path>
            <path d="M58.226,14.225 C57.474,14.225 56.795,15.02 56.795,16.004 C56.795,16.714 57.198,17.159 57.802,17.159 C58.533,17.159 59.168,16.364 59.168,15.316 C59.168,14.638 58.798,14.225 58.226,14.225 L58.226,14.225 Z M55.853,20.432 L53.946,20.432 L55.503,12.912 L57.21,12.912 L56.998,13.875 C57.526,13.166 58.204,12.805 58.988,12.805 C60.28,12.805 61.117,13.737 61.117,15.242 C61.117,17.223 59.931,18.557 58.236,18.557 C57.441,18.557 56.806,18.186 56.436,17.498 L55.853,20.432 L55.853,20.432 Z" id="Fill-25" fill="#1A1918" sketch:type="MSShapeGroup"></path>
            <path d="M65.269,14.225 C64.518,14.225 63.839,15.02 63.839,16.004 C63.839,16.714 64.242,17.159 64.846,17.159 C65.577,17.159 66.212,16.364 66.212,15.316 C66.212,14.638 65.842,14.225 65.269,14.225 L65.269,14.225 Z M62.896,20.432 L60.99,20.432 L62.547,12.912 L64.253,12.912 L64.041,13.875 C64.57,13.166 65.248,12.805 66.032,12.805 C67.324,12.805 68.161,13.737 68.161,15.242 C68.161,17.223 66.975,18.557 65.28,18.557 C64.486,18.557 63.85,18.186 63.479,17.498 L62.896,20.432 L62.896,20.432 Z" id="Fill-26" fill="#1A1918" sketch:type="MSShapeGroup"></path>
            <path d="M73.012,14.871 C73.012,14.267 72.642,13.886 72.059,13.886 C71.477,13.886 70.99,14.341 70.778,15.125 L72.991,15.125 C73.002,15.041 73.012,14.956 73.012,14.871 L73.012,14.871 Z M70.533,16.174 C70.608,16.979 71.053,17.349 71.932,17.349 C72.515,17.349 73.16,17.212 73.786,16.937 L73.574,18.282 C72.927,18.483 72.249,18.588 71.562,18.588 C69.846,18.588 68.829,17.583 68.829,16.036 C68.829,15.147 69.21,14.225 69.803,13.643 C70.375,13.081 71.202,12.784 72.229,12.784 C73.743,12.784 74.569,13.643 74.569,15.136 C74.569,15.443 74.526,15.792 74.443,16.174 L70.533,16.174 L70.533,16.174 Z" id="Fill-27" fill="#1A1918" sketch:type="MSShapeGroup"></path>
            <path d="M83.805,18.409 L81.995,18.409 L82.567,15.676 C82.63,15.39 82.663,15.168 82.663,14.998 C82.663,14.596 82.439,14.352 82.089,14.352 C81.803,14.352 81.55,14.479 81.358,14.723 C81.041,15.125 80.998,15.602 80.893,16.11 L80.406,18.409 L78.478,18.409 L79.06,15.676 C79.124,15.39 79.145,15.147 79.145,14.935 C79.145,14.564 78.944,14.352 78.574,14.352 C77.991,14.352 77.663,14.797 77.472,15.697 L76.889,18.409 L74.961,18.409 L76.127,12.912 L77.757,12.912 L77.546,13.907 C78.15,13.187 78.732,12.827 79.452,12.827 C80.236,12.827 80.723,13.187 80.947,13.896 C81.539,13.166 82.101,12.827 82.895,12.827 C83.912,12.827 84.558,13.473 84.558,14.543 C84.558,14.871 84.516,15.125 84.484,15.284 L83.805,18.409" id="Fill-28" fill="#1A1918" sketch:type="MSShapeGroup"></path>
            <path d="M89.61,14.871 C89.61,14.267 89.24,13.886 88.657,13.886 C88.073,13.886 87.588,14.341 87.375,15.125 L89.59,15.125 C89.6,15.041 89.61,14.956 89.61,14.871 L89.61,14.871 Z M87.131,16.174 C87.206,16.979 87.651,17.349 88.53,17.349 C89.112,17.349 89.758,17.212 90.383,16.937 L90.172,18.282 C89.526,18.483 88.846,18.588 88.159,18.588 C86.443,18.588 85.427,17.583 85.427,16.036 C85.427,15.147 85.808,14.225 86.401,13.643 C86.973,13.081 87.799,12.784 88.827,12.784 C90.34,12.784 91.169,13.643 91.169,15.136 C91.169,15.443 91.126,15.792 91.041,16.174 L87.131,16.174 L87.131,16.174 Z" id="Fill-29" fill="#1A1918" sketch:type="MSShapeGroup"></path>
            <path d="M97.448,18.409 L95.551,18.409 L96.126,15.676 C96.169,15.475 96.188,15.294 96.188,15.136 C96.188,14.617 95.922,14.331 95.501,14.331 C94.747,14.331 94.248,14.924 93.995,16.11 L93.508,18.409 L91.602,18.409 L92.766,12.912 L94.473,12.912 L94.26,13.886 C94.876,13.187 95.575,12.827 96.336,12.827 C97.46,12.827 98.116,13.515 98.116,14.733 C98.116,15.083 98.051,15.58 97.915,16.237 L97.448,18.409" id="Fill-30" fill="#1A1918" sketch:type="MSShapeGroup"></path>
            <path d="M102.215,12.964 L103.561,12.964 L103.286,14.267 L101.94,14.267 L101.538,16.163 C101.485,16.396 101.461,16.555 101.461,16.64 C101.461,17.032 101.633,17.201 102.055,17.201 C102.204,17.201 102.415,17.169 102.68,17.095 L102.407,18.398 C101.971,18.472 101.622,18.515 101.356,18.515 C100.223,18.515 99.577,17.911 99.577,16.862 C99.577,16.672 99.6,16.491 99.631,16.322 L100.065,14.267 L98.954,14.267 L99.227,12.964 L100.34,12.964 L100.616,11.672 L102.606,11.143 L102.215,12.964" id="Fill-31" fill="#1A1918" sketch:type="MSShapeGroup"></path>
            <path d="M3.676,24.817 C2.945,24.817 2.31,25.601 2.31,26.692 C2.31,27.327 2.691,27.751 3.252,27.751 C4.015,27.751 4.693,26.967 4.693,25.929 C4.693,25.262 4.269,24.817 3.676,24.817 L3.676,24.817 Z M7.521,21.65 L5.974,29.001 L4.28,29.001 L4.481,28.09 C3.952,28.8 3.273,29.16 2.489,29.16 C1.197,29.16 0.36,28.239 0.36,26.734 C0.36,24.754 1.558,23.408 3.252,23.408 C4.046,23.408 4.671,23.779 5.042,24.478 L5.646,21.65 L7.521,21.65 L7.521,21.65 Z" id="Fill-32" fill="#1A1918" sketch:type="MSShapeGroup"></path>
            <path d="M11.79,25.463 C11.79,24.859 11.419,24.478 10.836,24.478 C10.254,24.478 9.766,24.934 9.555,25.717 L11.769,25.717 C11.779,25.633 11.79,25.548 11.79,25.463 L11.79,25.463 Z M9.311,26.766 C9.385,27.571 9.83,27.942 10.709,27.942 C11.292,27.942 11.938,27.804 12.563,27.529 L12.351,28.874 C11.705,29.075 11.027,29.181 10.339,29.181 C8.623,29.181 7.605,28.175 7.605,26.628 C7.605,25.739 7.987,24.817 8.58,24.234 C9.152,23.673 9.978,23.376 11.006,23.376 C12.521,23.376 13.347,24.234 13.347,25.728 C13.347,26.035 13.304,26.385 13.22,26.766 L9.311,26.766 L9.311,26.766 Z" id="Fill-33" fill="#1A1918" sketch:type="MSShapeGroup"></path>
            <path d="M18.516,24.923 C17.976,24.743 17.52,24.616 17.075,24.616 C16.524,24.616 16.228,24.817 16.228,25.113 C16.228,25.495 16.662,25.537 17.35,25.823 C18.113,26.141 18.462,26.543 18.462,27.168 C18.462,28.323 17.51,29.149 15.889,29.149 C15.148,29.149 14.427,29.043 13.717,28.8 L14.109,27.486 C14.628,27.741 15.126,27.857 15.634,27.857 C16.259,27.857 16.588,27.677 16.588,27.37 C16.588,26.989 16.27,26.915 15.794,26.724 C14.904,26.363 14.427,26.024 14.427,25.188 C14.427,24.203 15.37,23.397 17.011,23.397 C17.615,23.397 18.251,23.514 18.929,23.726 L18.516,24.923" id="Fill-34" fill="#1A1918" sketch:type="MSShapeGroup"></path>
            <path d="M26.82,25.463 C26.82,24.859 26.45,24.478 25.867,24.478 C25.284,24.478 24.796,24.934 24.585,25.717 L26.798,25.717 C26.809,25.633 26.82,25.548 26.82,25.463 L26.82,25.463 Z M24.342,26.766 C24.416,27.571 24.86,27.942 25.739,27.942 C26.322,27.942 26.969,27.804 27.593,27.529 L27.381,28.874 C26.735,29.075 26.058,29.181 25.369,29.181 C23.653,29.181 22.636,28.175 22.636,26.628 C22.636,25.739 23.018,24.817 23.61,24.234 C24.182,23.673 25.009,23.376 26.036,23.376 C27.551,23.376 28.377,24.234 28.377,25.728 C28.377,26.035 28.334,26.385 28.25,26.766 L24.342,26.766 L24.342,26.766 Z" id="Fill-35" fill="#1A1918" sketch:type="MSShapeGroup"></path>
            <path d="M34.659,29.001 L32.762,29.001 L33.334,26.269 C33.377,26.067 33.397,25.887 33.397,25.728 C33.397,25.209 33.133,24.923 32.709,24.923 C31.956,24.923 31.459,25.516 31.205,26.703 L30.718,29.001 L28.811,29.001 L29.977,23.504 L31.682,23.504 L31.47,24.478 C32.084,23.779 32.783,23.419 33.546,23.419 C34.669,23.419 35.326,24.107 35.326,25.325 C35.326,25.675 35.262,26.173 35.124,26.83 L34.659,29.001" id="Fill-36" fill="#1A1918" sketch:type="MSShapeGroup"></path>
            <path d="M39.424,23.557 L40.77,23.557 L40.495,24.859 L39.149,24.859 L38.747,26.755 C38.693,26.989 38.672,27.147 38.672,27.232 C38.672,27.624 38.842,27.793 39.266,27.793 C39.414,27.793 39.626,27.762 39.89,27.687 L39.615,28.99 C39.181,29.064 38.831,29.107 38.567,29.107 C37.434,29.107 36.787,28.503 36.787,27.454 C36.787,27.264 36.809,27.084 36.84,26.915 L37.275,24.859 L36.163,24.859 L36.437,23.557 L37.55,23.557 L37.825,22.264 L39.816,21.735 L39.424,23.557" id="Fill-37" fill="#1A1918" sketch:type="MSShapeGroup"></path>
            <path d="M45.611,25.114 C45.271,25.019 44.996,24.965 44.784,24.965 C43.916,24.965 43.534,25.505 43.291,26.65 L42.782,29.001 L40.875,29.001 L41.988,23.535 L43.714,23.535 L43.513,24.531 C44.043,23.769 44.572,23.408 45.313,23.408 C45.546,23.408 45.78,23.451 46.035,23.525 L45.611,25.114" id="Fill-38" fill="#1A1918" sketch:type="MSShapeGroup"></path>
            <path d="M50.102,25.463 C50.102,24.859 49.73,24.478 49.148,24.478 C48.565,24.478 48.079,24.934 47.867,25.717 L50.08,25.717 C50.091,25.633 50.102,25.548 50.102,25.463 L50.102,25.463 Z M47.623,26.766 C47.697,27.571 48.142,27.942 49.021,27.942 C49.604,27.942 50.25,27.804 50.875,27.529 L50.663,28.874 C50.017,29.075 49.339,29.181 48.65,29.181 C46.934,29.181 45.918,28.175 45.918,26.628 C45.918,25.739 46.299,24.817 46.892,24.234 C47.464,23.673 48.29,23.376 49.317,23.376 C50.832,23.376 51.658,24.234 51.658,25.728 C51.658,26.035 51.616,26.385 51.531,26.766 L47.623,26.766 L47.623,26.766 Z" id="Fill-39" fill="#1A1918" sketch:type="MSShapeGroup"></path>
            <path d="M56.086,24.817 C55.334,24.817 54.656,25.611 54.656,26.597 C54.656,27.307 55.059,27.751 55.662,27.751 C56.393,27.751 57.029,26.957 57.029,25.908 C57.029,25.23 56.657,24.817 56.086,24.817 L56.086,24.817 Z M53.713,31.024 L51.807,31.024 L53.364,23.504 L55.069,23.504 L54.857,24.467 C55.387,23.758 56.064,23.397 56.848,23.397 C58.141,23.397 58.978,24.33 58.978,25.834 C58.978,27.814 57.792,29.149 56.096,29.149 C55.302,29.149 54.667,28.779 54.295,28.09 L53.713,31.024 L53.713,31.024 Z" id="Fill-40" fill="#1A1918" sketch:type="MSShapeGroup"></path>
            <path d="M64.146,25.114 C63.808,25.019 63.532,24.965 63.32,24.965 C62.452,24.965 62.071,25.505 61.827,26.65 L61.319,29.001 L59.412,29.001 L60.524,23.535 L62.251,23.535 L62.049,24.531 C62.579,23.769 63.108,23.408 63.85,23.408 C64.083,23.408 64.316,23.451 64.57,23.525 L64.146,25.114" id="Fill-41" fill="#1A1918" sketch:type="MSShapeGroup"></path>
            <path d="M67.79,21.65 L67.599,22.625 L65.746,22.625 L65.926,21.65 L67.79,21.65 L67.79,21.65 Z M67.399,23.546 L66.212,29.001 L64.358,29.001 L65.545,23.546 L67.399,23.546 L67.399,23.546 Z" id="Fill-42" fill="#1A1918" sketch:type="MSShapeGroup"></path>
            <path d="M72.398,24.923 C71.857,24.743 71.402,24.616 70.957,24.616 C70.407,24.616 70.11,24.817 70.11,25.114 C70.11,25.495 70.545,25.538 71.232,25.823 C71.996,26.141 72.344,26.543 72.344,27.168 C72.344,28.323 71.392,29.149 69.771,29.149 C69.029,29.149 68.31,29.043 67.599,28.8 L67.992,27.486 C68.51,27.741 69.008,27.857 69.517,27.857 C70.142,27.857 70.47,27.677 70.47,27.37 C70.47,26.989 70.152,26.915 69.676,26.724 C68.787,26.363 68.31,26.024 68.31,25.188 C68.31,24.203 69.252,23.397 70.894,23.397 C71.497,23.397 72.132,23.514 72.811,23.726 L72.398,24.923" id="Fill-43" fill="#1A1918" sketch:type="MSShapeGroup"></path>
            <path d="M77.44,25.463 C77.44,24.859 77.069,24.478 76.487,24.478 C75.904,24.478 75.416,24.934 75.205,25.717 L77.419,25.717 C77.429,25.633 77.44,25.548 77.44,25.463 L77.44,25.463 Z M74.961,26.766 C75.036,27.571 75.48,27.942 76.359,27.942 C76.942,27.942 77.589,27.804 78.212,27.529 L78.001,28.874 C77.355,29.075 76.677,29.181 75.988,29.181 C74.272,29.181 73.256,28.175 73.256,26.628 C73.256,25.739 73.637,24.817 74.231,24.234 C74.802,23.673 75.628,23.376 76.656,23.376 C78.17,23.376 78.997,24.234 78.997,25.728 C78.997,26.035 78.955,26.385 78.869,26.766 L74.961,26.766 L74.961,26.766 Z" id="Fill-44" fill="#1A1918" sketch:type="MSShapeGroup"></path>
            <path d="M84.166,24.923 C83.626,24.743 83.17,24.616 82.726,24.616 C82.175,24.616 81.878,24.817 81.878,25.114 C81.878,25.495 82.312,25.538 83.001,25.823 C83.764,26.141 84.113,26.543 84.113,27.168 C84.113,28.323 83.159,29.149 81.539,29.149 C80.797,29.149 80.078,29.043 79.368,28.8 L79.759,27.486 C80.278,27.741 80.776,27.857 81.284,27.857 C81.91,27.857 82.239,27.677 82.239,27.37 C82.239,26.989 81.92,26.915 81.443,26.724 C80.554,26.363 80.078,26.024 80.078,25.188 C80.078,24.203 81.02,23.397 82.663,23.397 C83.266,23.397 83.901,23.514 84.579,23.726 L84.166,24.923" id="Fill-45" fill="#1A1918" sketch:type="MSShapeGroup"></path>
            <path d="M5.116,35.664 C4.714,35.473 4.322,35.378 3.952,35.378 C2.934,35.378 2.267,36.013 2.267,36.944 C2.267,37.761 2.807,38.279 3.676,38.279 C4.025,38.279 4.375,38.195 4.757,38.025 L4.534,39.467 C3.962,39.614 3.453,39.688 2.977,39.688 C1.303,39.688 0.276,38.661 0.276,37.156 C0.276,35.314 1.6,33.99 3.729,33.99 C4.343,33.99 4.947,34.107 5.551,34.351 L5.116,35.664" id="Fill-46" fill="#1A1918" sketch:type="MSShapeGroup"></path>
            <path d="M8.294,34.148 L7.722,36.882 C7.679,37.072 7.658,37.252 7.658,37.422 C7.658,37.951 7.913,38.236 8.379,38.236 C9.067,38.236 9.597,37.634 9.851,36.447 L10.339,34.148 L12.245,34.148 L11.08,39.593 L9.375,39.593 L9.586,38.672 C8.972,39.37 8.273,39.73 7.51,39.73 C6.387,39.73 5.73,39.054 5.73,37.834 C5.73,37.475 5.794,36.966 5.932,36.32 L6.387,34.148 L8.294,34.148" id="Fill-47" fill="#1A1918" sketch:type="MSShapeGroup"></path>
            <path d="M16.026,32.253 L14.438,39.593 L12.552,39.593 L14.141,32.253 L16.026,32.253" id="Fill-48" fill="#1A1918" sketch:type="MSShapeGroup"></path>
            <path d="M19.448,34.148 L20.792,34.148 L20.518,35.452 L19.172,35.452 L18.77,37.348 C18.717,37.581 18.696,37.74 18.696,37.825 C18.696,38.216 18.865,38.387 19.289,38.387 C19.437,38.387 19.649,38.354 19.913,38.279 L19.638,39.583 C19.204,39.657 18.854,39.699 18.589,39.699 C17.456,39.699 16.81,39.096 16.81,38.047 C16.81,37.855 16.831,37.676 16.863,37.506 L17.297,35.452 L16.186,35.452 L16.46,34.148 L17.573,34.148 L17.848,32.856 L19.839,32.327 L19.448,34.148" id="Fill-49" fill="#1A1918" sketch:type="MSShapeGroup"></path>
            <path d="M23.695,34.148 L23.123,36.882 C23.081,37.072 23.059,37.252 23.059,37.422 C23.059,37.951 23.313,38.236 23.779,38.236 C24.468,38.236 24.998,37.634 25.252,36.447 L25.739,34.148 L27.646,34.148 L26.481,39.593 L24.775,39.593 L24.987,38.672 C24.373,39.37 23.674,39.73 22.911,39.73 C21.789,39.73 21.132,39.054 21.132,37.834 C21.132,37.475 21.195,36.966 21.332,36.32 L21.789,34.148 L23.695,34.148" id="Fill-50" fill="#1A1918" sketch:type="MSShapeGroup"></path>
            <path d="M32.635,35.706 C32.296,35.61 32.021,35.558 31.809,35.558 C30.94,35.558 30.559,36.098 30.315,37.242 L29.807,39.593 L27.899,39.593 L29.012,34.127 L30.738,34.127 L30.537,35.124 C31.066,34.36 31.597,34 32.337,34 C32.571,34 32.804,34.043 33.058,34.117 L32.635,35.706" id="Fill-51" fill="#1A1918" sketch:type="MSShapeGroup"></path>
            <path d="M37.232,36.056 C37.232,35.452 36.861,35.07 36.278,35.07 C35.695,35.07 35.208,35.526 34.997,36.31 L37.211,36.31 C37.221,36.226 37.232,36.14 37.232,36.056 L37.232,36.056 Z M34.752,37.358 C34.827,38.163 35.271,38.534 36.151,38.534 C36.734,38.534 37.38,38.396 38.005,38.121 L37.792,39.467 C37.146,39.667 36.468,39.773 35.781,39.773 C34.065,39.773 33.047,38.767 33.047,37.221 C33.047,36.331 33.429,35.409 34.022,34.826 C34.595,34.266 35.42,33.969 36.447,33.969 C37.963,33.969 38.789,34.826 38.789,36.32 C38.789,36.627 38.746,36.978 38.662,37.358 L34.752,37.358 L34.752,37.358 Z" id="Fill-52" fill="#1A1918" sketch:type="MSShapeGroup"></path>
            <path d="M42.814,32.253 L41.225,39.593 L39.34,39.593 L40.928,32.253 L42.814,32.253" id="Fill-53" fill="#1A1918" sketch:type="MSShapeGroup"></path>
            <path d="M46.32,32.253 L44.731,39.593 L42.846,39.593 L44.434,32.253 L46.32,32.253" id="Fill-54" fill="#1A1918" sketch:type="MSShapeGroup"></path>
            <path d="M50.716,36.056 C50.716,35.452 50.344,35.07 49.761,35.07 C49.179,35.07 48.692,35.526 48.481,36.31 L50.694,36.31 C50.705,36.226 50.716,36.14 50.716,36.056 L50.716,36.056 Z M48.236,37.358 C48.311,38.163 48.755,38.534 49.635,38.534 C50.218,38.534 50.863,38.396 51.489,38.121 L51.277,39.467 C50.63,39.667 49.953,39.773 49.264,39.773 C47.548,39.773 46.532,38.767 46.532,37.221 C46.532,36.331 46.913,35.409 47.505,34.826 C48.078,34.266 48.904,33.969 49.932,33.969 C51.446,33.969 52.272,34.826 52.272,36.32 C52.272,36.627 52.23,36.978 52.146,37.358 L48.236,37.358 L48.236,37.358 Z" id="Fill-55" fill="#1A1918" sketch:type="MSShapeGroup"></path>
            <path d="M57.441,35.515 C56.901,35.335 56.445,35.207 56,35.207 C55.45,35.207 55.153,35.409 55.153,35.706 C55.153,36.088 55.588,36.13 56.276,36.416 C57.038,36.733 57.388,37.137 57.388,37.761 C57.388,38.915 56.435,39.742 54.814,39.742 C54.073,39.742 53.353,39.637 52.643,39.392 L53.035,38.078 C53.554,38.333 54.052,38.45 54.561,38.45 C55.185,38.45 55.513,38.27 55.513,37.962 C55.513,37.581 55.196,37.506 54.719,37.316 C53.829,36.956 53.353,36.616 53.353,35.78 C53.353,34.796 54.295,33.99 55.937,33.99 C56.541,33.99 57.176,34.107 57.854,34.318 L57.441,35.515" id="Fill-56" fill="#1A1918" sketch:type="MSShapeGroup"></path>
            <path d="M149.758,45.56 C149.553,46.204 149.194,46.421 149.09,46.421 C149.09,46.421 149.258,45.711 148.747,45.35 C148.264,45.01 147.667,45.215 147.393,45.621 C147.131,46.008 147.088,46.536 147.088,46.536 L147.973,46.536 L147.973,47.191 L146.198,47.19 C146.198,47.19 146.243,48.113 147.217,48.022 C147.217,48.022 147.098,48.749 146.198,48.369 C146.198,48.369 146.243,49.131 145.625,49.514 C145.008,49.131 145.057,48.369 145.057,48.369 C144.155,48.749 144.038,48.022 144.038,48.022 C145.008,48.113 145.057,47.19 145.057,47.19 L143.28,47.191 L143.28,46.536 L144.163,46.536 C144.163,46.536 144.122,46.008 143.862,45.621 C143.584,45.215 142.989,45.01 142.506,45.35 C141.995,45.711 142.163,46.421 142.163,46.421 C142.061,46.421 141.7,46.204 141.495,45.56 C141.11,44.333 142.323,43.151 143.551,43.833 C144.417,44.314 144.774,45.393 144.774,46.536 L145.245,46.536 C145.231,46.624 145.354,45.684 145.168,44.981 C145.034,44.496 144.864,43.986 144.571,43.373 C144.313,42.84 144.219,41.939 144.76,41.266 C145.225,40.68 145.502,40.352 145.625,40.125 C145.75,40.352 146.03,40.68 146.493,41.266 C147.038,41.939 146.94,42.84 146.682,43.373 C146.387,43.986 146.217,44.496 146.086,44.981 C145.899,45.684 146.02,46.624 146.01,46.536 L146.481,46.536 C146.481,45.393 146.834,44.314 147.702,43.833 C148.93,43.151 150.143,44.333 149.758,45.56 L149.758,45.56 Z M137.149,49.971 L154.102,49.971 L154.102,39.58 L137.149,39.58 L137.149,49.971 Z" id="Fill-57" fill="#1A1918" sketch:type="MSShapeGroup"></path>
            <path d="M171.643,45.56 C171.446,46.204 171.084,46.421 170.985,46.421 C170.985,46.421 171.147,45.711 170.639,45.35 C170.153,45.01 169.557,45.215 169.28,45.621 C169.022,46.008 168.977,46.536 168.977,46.536 L169.866,46.536 L169.866,47.191 L168.084,47.19 C168.084,47.19 168.131,48.113 169.108,48.022 C169.108,48.022 168.987,48.749 168.084,48.369 C168.084,48.369 168.131,49.131 167.518,49.514 C166.897,49.131 166.944,48.369 166.944,48.369 C166.045,48.749 165.928,48.022 165.928,48.022 C166.897,48.113 166.944,47.19 166.944,47.19 L165.17,47.191 L165.17,46.536 L166.053,46.536 C166.053,46.536 166.012,46.008 165.749,45.621 C165.473,45.215 164.877,45.01 164.399,45.35 C163.885,45.711 164.051,46.421 164.051,46.421 C163.95,46.421 163.588,46.204 163.385,45.56 C163,44.333 164.211,43.151 165.44,43.833 C166.307,44.314 166.663,45.393 166.663,46.536 L167.135,46.536 C167.122,46.624 167.243,45.684 167.059,44.981 C166.924,44.496 166.754,43.986 166.459,43.373 C166.202,42.84 166.104,41.939 166.649,41.266 C167.116,40.68 167.393,40.352 167.518,40.125 C167.639,40.352 167.918,40.68 168.383,41.266 C168.924,41.939 168.829,42.84 168.573,43.373 C168.278,43.986 168.106,44.496 167.977,44.981 C167.788,45.684 167.913,46.624 167.903,46.536 L168.37,46.536 C168.37,45.393 168.727,44.314 169.588,43.833 C170.815,43.151 172.03,44.333 171.643,45.56 L171.643,45.56 Z M159.042,49.971 L175.999,49.971 L175.999,39.58 L159.042,39.58 L159.042,49.971 Z" id="Fill-58" fill="#1A1918" sketch:type="MSShapeGroup"></path>
            <path d="M149.758,60.897 C149.553,61.539 149.194,61.757 149.09,61.757 C149.09,61.757 149.258,61.05 148.747,60.686 C148.264,60.347 147.667,60.552 147.393,60.955 C147.131,61.344 147.088,61.874 147.088,61.874 L147.973,61.874 L147.973,62.527 L146.198,62.525 C146.198,62.525 146.243,63.448 147.217,63.359 C147.217,63.359 147.098,64.086 146.198,63.703 C146.198,63.703 146.243,64.469 145.625,64.851 C145.008,64.469 145.057,63.703 145.057,63.703 C144.155,64.086 144.038,63.359 144.038,63.359 C145.008,63.448 145.057,62.525 145.057,62.525 L143.28,62.527 L143.28,61.874 L144.163,61.874 C144.163,61.874 144.122,61.344 143.862,60.955 C143.584,60.552 142.989,60.347 142.506,60.686 C141.995,61.05 142.163,61.757 142.163,61.757 C142.061,61.757 141.7,61.539 141.495,60.897 C141.11,59.671 142.323,58.487 143.551,59.17 C144.417,59.648 144.774,60.73 144.774,61.874 L145.245,61.874 C145.231,61.96 145.354,61.021 145.168,60.319 C145.034,59.832 144.864,59.322 144.571,58.709 C144.313,58.176 144.219,57.276 144.76,56.604 C145.225,56.018 145.502,55.69 145.625,55.462 C145.75,55.69 146.03,56.018 146.493,56.604 C147.038,57.276 146.94,58.176 146.682,58.709 C146.387,59.322 146.217,59.832 146.086,60.319 C145.899,61.021 146.02,61.96 146.01,61.874 L146.481,61.874 C146.481,60.73 146.834,59.648 147.702,59.17 C148.93,58.487 150.143,59.671 149.758,60.897 L149.758,60.897 Z M137.149,65.308 L154.102,65.308 L154.102,54.92 L137.149,54.92 L137.149,65.308 Z" id="Fill-59" fill="#1A1918" sketch:type="MSShapeGroup"></path>
            <path d="M171.643,60.897 C171.446,61.539 171.084,61.757 170.985,61.757 C170.985,61.757 171.147,61.05 170.639,60.686 C170.153,60.347 169.557,60.552 169.28,60.955 C169.022,61.344 168.977,61.874 168.977,61.874 L169.866,61.874 L169.866,62.527 L168.084,62.525 C168.084,62.525 168.131,63.448 169.108,63.359 C169.108,63.359 168.987,64.086 168.084,63.703 C168.084,63.703 168.131,64.469 167.518,64.851 C166.897,64.469 166.944,63.703 166.944,63.703 C166.045,64.086 165.928,63.359 165.928,63.359 C166.897,63.448 166.944,62.525 166.944,62.525 L165.17,62.527 L165.17,61.874 L166.053,61.874 C166.053,61.874 166.012,61.344 165.749,60.955 C165.473,60.552 164.877,60.347 164.399,60.686 C163.885,61.05 164.051,61.757 164.051,61.757 C163.95,61.757 163.588,61.539 163.385,60.897 C163,59.671 164.211,58.487 165.44,59.17 C166.307,59.648 166.663,60.73 166.663,61.874 L167.135,61.874 C167.122,61.96 167.243,61.021 167.059,60.319 C166.924,59.832 166.754,59.322 166.459,58.709 C166.202,58.176 166.104,57.276 166.649,56.604 C167.116,56.018 167.393,55.69 167.518,55.462 C167.639,55.69 167.918,56.018 168.383,56.604 C168.924,57.276 168.829,58.176 168.573,58.709 C168.278,59.322 168.106,59.832 167.977,60.319 C167.788,61.021 167.913,61.96 167.903,61.874 L168.37,61.874 C168.37,60.73 168.727,59.648 169.588,59.17 C170.815,58.487 172.03,59.671 171.643,60.897 L171.643,60.897 Z M159.042,65.308 L175.999,65.308 L175.999,54.92 L159.042,54.92 L159.042,65.308 Z" id="Fill-60" fill="#1A1918" sketch:type="MSShapeGroup"></path>
        </g>
    </g>
</svg>