<?xml version="1.0" encoding="UTF-8" standalone="no"?>
<svg width="228px" height="270px" viewBox="0 0 228 270" version="1.1" xmlns="http://www.w3.org/2000/svg" xmlns:xlink="http://www.w3.org/1999/xlink" xmlns:sketch="http://www.bohemiancoding.com/sketch/ns">
    <!-- Generator: Sketch 3.0.3 (7891) - http://www.bohemiancoding.com/sketch -->
    <title>&amp;</title>
    <desc>Created with Sketch.</desc>
    <defs></defs>
    <g id="Page-1" stroke="none" stroke-width="1" fill="none" fill-rule="evenodd" sketch:type="MSPage">
        <g id="Accueil" sketch:type="MSArtboardGroup" transform="translate(-627.000000, -1085.000000)" fill="#8F8B75">
            <path d="M627,1280.51682 C627,1248.14448 644.72782,1222.09981 680.188757,1202.38279 L683.997793,1200.55825 C675.106511,1188.02469 669.019471,1177.40566 665.727843,1168.70293 C662.441512,1160.00196 660.795698,1151.02572 660.795698,1141.77598 C660.795698,1125.46806 666.98516,1111.92695 679.362318,1101.15617 C691.741242,1090.38539 707.74908,1085 727.385833,1085 C746.777125,1085 762.814984,1090.93416 775.499407,1102.79896 C788.185597,1114.66552 794.528692,1128.93716 794.528692,1145.60857 C794.528692,1154.98183 792.151797,1164.0463 787.40154,1172.80902 C782.64775,1181.57175 777.196433,1188.81344 771.044054,1194.53409 C764.891676,1200.25475 758.100044,1205.24488 750.665626,1209.50273 L747.011989,1211.69429 L787.768846,1263.72188 C792.323089,1255.81319 795.800136,1248.84501 798.201754,1242.81909 C800.598073,1236.79493 803.02971,1228.79449 805.491368,1218.81246 L851.164476,1218.81246 C844.530009,1249.11851 832.304718,1276.01546 814.492135,1299.50331 L855,1350.80038 L802.144997,1350.80038 L785.57737,1330.53636 C764.82987,1346.8478 741.090944,1355 714.362357,1355 C699.680706,1355 686.544213,1352.77667 674.958176,1348.33708 C663.368607,1343.89572 654.20891,1338.02155 647.473787,1330.71987 C640.736897,1323.41818 635.64229,1315.47597 632.184668,1306.89675 C628.725279,1298.31578 627,1289.52481 627,1280.51682 L627,1280.51682 Z M670,1279.6471 C670,1290.4595 674.220245,1299.38735 682.65542,1306.43241 C691.092366,1313.47923 701.178787,1317 712.92354,1317 C731.190007,1317 746.880389,1310.98704 760,1298.96113 L708.324147,1233 C695.61026,1239.31766 686.042954,1246.24119 679.624001,1253.77236 C673.206819,1261.30529 670,1269.92844 670,1279.6471 L670,1279.6471 Z M706,1145.17641 C706,1153.60727 710.638673,1164.11795 719.916019,1176.70135 L722.626841,1180 C731.180374,1175.72522 738.047906,1170.68336 743.22944,1164.87972 C748.410973,1159.07786 751,1152.75338 751,1145.90984 C751,1138.82536 748.77114,1133.23431 744.311681,1129.14023 C739.853961,1125.04793 734.192205,1123 727.322932,1123 C721.901288,1123 716.992924,1125.01604 712.596103,1129.04811 C708.194061,1133.08019 706,1138.45865 706,1145.17641 L706,1145.17641 Z" id="&amp;" sketch:type="MSShapeGroup"></path>
        </g>
    </g>
</svg>